<svg width="40" height="32" viewBox="0 0 40 32" fill="none" xmlns="http://www.w3.org/2000/svg">
<path fill-rule="evenodd" clip-rule="evenodd" d="M8.30813 0C6.02578 0 4.33695 1.99617 4.41258 4.16097C4.48516 6.24075 4.39086 8.93438 3.71227 11.131C3.03125 13.3338 1.88031 14.7298 0 14.9089V16.9318C1.88031 17.1114 3.03125 18.5066 3.71219 20.7097C4.39086 22.9063 4.48508 25.6 4.4125 27.6797C4.33687 29.8442 6.0257 31.8407 8.30844 31.8407H31.6949C33.9773 31.8407 35.6658 29.8445 35.5902 27.6797C35.5176 25.6 35.6119 22.9063 36.2905 20.7097C36.9715 18.5066 38.1196 17.1108 40 16.9318V14.9089C38.1197 14.7294 36.9716 13.3342 36.2905 11.131C35.6118 8.93469 35.5176 6.24075 35.5902 4.16097C35.6658 1.99649 33.9773 0 31.6949 0H8.30781H8.30813ZM27.1187 19.6C27.1187 22.5809 24.8936 24.3887 21.201 24.3887H14.9152C14.7354 24.3887 14.563 24.3173 14.4358 24.1903C14.3087 24.0632 14.2373 23.8909 14.2373 23.7112V8.12959C14.2373 7.94991 14.3087 7.77759 14.4358 7.65055C14.563 7.5235 14.7354 7.45212 14.9152 7.45212H21.1652C24.2442 7.45212 26.2649 9.11869 26.2649 11.6774C26.2649 13.4734 24.9055 15.0811 23.1737 15.3628V15.4565C25.5312 15.7149 27.1187 17.3465 27.1187 19.6ZM20.5156 9.59967H16.9316V14.6584H19.9502C22.2838 14.6584 23.5705 13.7194 23.5705 12.0411C23.5703 10.4682 22.4641 9.59967 20.5156 9.59967ZM16.9316 16.6656V22.2404H20.6475C23.0772 22.2404 24.3641 21.2662 24.3641 19.4354C24.3641 17.6046 23.0411 16.6653 20.4912 16.6653H16.9316V16.6656Z" fill="#7952B3"/>
</svg>
