<svg width="41" height="41" viewBox="0 0 41 41" fill="none" xmlns="http://www.w3.org/2000/svg">
<g clip-path="url(#clip0_392_268)">
<path d="M6.04688 36.4375L2.84375 0.5H38.0781L34.875 36.4375L20.4219 40.5" fill="#E34F26"/>
<path d="M20.5 37.375L32.1406 34.1719L34.875 3.39062H20.5" fill="#EF652A"/>
<path d="M20.5 16.75H14.6406L14.25 12.2188H20.5V7.84375H20.4219H9.40625L9.48438 9.01562L10.5781 21.2031H20.5V16.75ZM20.5 28.2344H20.4219L15.5 26.9062L15.1875 23.3906H12.8438H10.8125L11.3594 30.3438L20.4219 32.8438H20.5V28.2344Z" fill="#EBEBEB"/>
<path d="M20.4219 16.75V21.2031H25.8906L25.3438 26.9062L20.4219 28.2344V32.8438L29.4844 30.3438L29.5625 29.5625L30.5781 17.9219L30.7344 16.75H29.4844H20.4219ZM20.4219 7.84375V10.5781V12.2188H31.125L31.2031 11.2812L31.4375 9.01562L31.5156 7.84375H20.4219Z" fill="white"/>
</g>
<defs>
<clipPath id="clip0_392_268">
<rect width="40" height="40" fill="white" transform="translate(0.5 0.5)"/>
</clipPath>
</defs>
</svg>
