<svg width="40" height="41" viewBox="0 0 40 41" fill="none" xmlns="http://www.w3.org/2000/svg">
<path d="M20.0052 38.5474C19.5268 38.5474 19.0527 38.4224 18.6335 38.1807L14.2668 35.5949C13.6143 35.2299 13.9327 35.1007 14.1477 35.0265C15.0177 34.7224 15.1935 34.6532 16.1218 34.1257C16.2193 34.0699 16.3468 34.0899 16.4468 34.149L19.8018 36.1399C19.9227 36.2057 20.0952 36.2057 20.2068 36.1399L33.2877 28.5891C33.4085 28.5199 33.4877 28.3799 33.4877 28.2357V13.1416C33.4877 12.9907 33.4093 12.8565 33.2852 12.7815L20.2102 5.23655C20.0893 5.16488 19.9285 5.16488 19.8077 5.23655L6.73435 12.7807C6.60768 12.8524 6.52685 12.9932 6.52685 13.1374V28.2324C6.52685 28.3765 6.60518 28.514 6.73018 28.5824L10.3127 30.6515C12.2577 31.624 13.446 30.4782 13.446 29.3257V14.4282C13.446 14.2157 13.6127 14.0515 13.826 14.0515H15.4827C15.6893 14.0515 15.8593 14.2149 15.8593 14.4282V29.3332C15.8593 31.9265 14.4452 33.4165 11.986 33.4165C11.2293 33.4165 10.6335 33.4165 8.97018 32.5982L5.53852 30.6207C4.69018 30.129 4.16602 29.2115 4.16602 28.2332V13.1382C4.16602 12.1557 4.69018 11.239 5.53768 10.754L18.6327 3.19988C19.461 2.73155 20.561 2.73155 21.3835 3.19988L34.4618 10.7574C35.3052 11.2449 35.8327 12.159 35.8327 13.1416V28.2366C35.8327 29.2157 35.3052 30.129 34.461 30.6207L21.3827 38.174C20.9635 38.4165 20.4885 38.5407 20.0043 38.5407" fill="#21A366"/>
<path d="M24.0464 28.1458C18.323 28.1458 17.123 25.5183 17.123 23.315C17.123 23.1058 17.2922 22.9383 17.5022 22.9383H19.1922C19.3789 22.9383 19.5364 23.0742 19.5655 23.2583C19.8205 24.98 20.5805 25.8483 24.0414 25.8483C26.798 25.8483 27.9705 25.2258 27.9705 23.7633C27.9705 22.9217 27.6364 22.2967 23.3539 21.8775C19.7714 21.5242 17.558 20.735 17.558 17.87C17.558 15.2308 19.7847 13.6592 23.5139 13.6592C27.7022 13.6592 29.778 15.1133 30.0397 18.2367C30.0497 18.345 30.0105 18.4492 29.938 18.5283C29.8664 18.6033 29.7647 18.6492 29.6597 18.6492H27.9605C27.7839 18.6492 27.6297 18.525 27.5939 18.3542C27.1847 16.5433 26.1955 15.9642 23.5072 15.9642C20.498 15.9642 20.148 17.0117 20.148 17.7975C20.148 18.75 20.5605 19.0283 24.6205 19.5658C28.6414 20.0992 30.5505 20.8525 30.5505 23.6783C30.5505 26.5267 28.173 28.1608 24.028 28.1608" fill="#21A366"/>
</svg>
