<svg width="40" height="29" viewBox="0 0 40 29" fill="none" xmlns="http://www.w3.org/2000/svg">
<path d="M34.4232 16.6702C33.0286 16.6772 31.8164 17.0021 30.8015 17.4824C30.4291 16.769 30.0567 16.1334 29.991 15.6672C29.9179 15.1234 29.8303 14.7914 29.9179 14.1417C30.0056 13.4919 30.3999 12.5666 30.3926 12.496C30.3853 12.4254 30.3049 12.0934 29.5017 12.0864C28.6985 12.0793 28.0048 12.2347 27.9245 12.4395C27.8442 12.6443 27.6909 13.1105 27.5886 13.5908C27.4499 14.297 25.9822 16.8185 25.1425 18.1392C24.8723 17.6236 24.6386 17.1716 24.5875 16.8114C24.5145 16.2676 24.4269 15.9356 24.5145 15.2858C24.6021 14.6361 24.9964 13.7108 24.9891 13.6402C24.9818 13.5696 24.9015 13.2376 24.0983 13.2306C23.2951 13.2235 22.6014 13.3789 22.5211 13.5837C22.4408 13.7885 22.3531 14.2688 22.1852 14.7349C22.0172 15.2011 20.0676 19.4105 19.5565 20.4982C19.2936 21.0562 19.0673 21.5011 18.9066 21.8048C18.9066 21.8048 18.8993 21.826 18.8774 21.8613C18.7387 22.1227 18.6584 22.2639 18.6584 22.2639C18.6584 22.2639 18.6584 22.2639 18.6584 22.271C18.5488 22.4617 18.432 22.6382 18.3736 22.6382C18.3298 22.6382 18.2495 22.1297 18.3882 21.4376C18.6803 19.9756 19.374 17.7013 19.3666 17.6236C19.3666 17.5813 19.4981 17.1857 18.9139 16.9809C18.3444 16.7761 18.1399 17.1151 18.0888 17.1151C18.0377 17.1151 18.0012 17.2352 18.0012 17.2352C18.0012 17.2352 18.6365 14.6784 16.7891 14.6784C15.6354 14.6784 14.0435 15.9003 13.2549 17.0021C12.7584 17.2634 11.6996 17.8214 10.5678 18.4217C10.137 18.6548 9.69158 18.8879 9.27537 19.1068C9.24617 19.0786 9.21696 19.0433 9.18775 19.015C6.95336 16.7055 2.82046 15.074 2.99571 11.9734C3.06143 10.8433 3.46303 7.87692 10.9329 4.27488C17.0811 1.3438 21.9734 2.15603 22.8205 3.95705C24.0326 6.52792 20.1991 11.3024 13.8464 11.9946C11.4221 12.2559 10.1516 11.3518 9.83032 11.0128C9.49443 10.6597 9.44332 10.6385 9.31918 10.7091C9.11473 10.8151 9.24617 11.1329 9.31918 11.3165C9.50904 11.7968 10.2903 12.6443 11.612 13.061C12.7803 13.4283 15.6208 13.6331 19.06 12.3477C22.9081 10.9069 25.9165 6.90225 25.0329 3.54741C24.1494 0.14312 18.3079 -0.979871 12.7803 0.920031C9.49443 2.05009 5.93109 3.82992 3.36811 6.14653C0.323199 8.90104 -0.158728 11.2953 0.0384242 12.2983C0.746712 15.8579 5.82156 18.1745 7.8515 19.8908C7.74927 19.9473 7.65434 19.9967 7.57402 20.0391C6.55905 20.5265 2.68903 22.4829 1.72517 24.5523C0.629881 26.8971 1.90042 28.5781 2.74014 28.8041C5.34693 29.5033 8.02674 28.2461 9.46522 26.1697C10.9037 24.0932 10.7285 21.3952 10.064 20.1592C10.0567 20.1451 10.0494 20.1309 10.0348 20.1168C10.2976 19.9685 10.5678 19.8131 10.8307 19.6648C11.3491 19.3682 11.8603 19.0927 12.2984 18.8667C12.0501 19.5235 11.8676 20.3075 11.7799 21.4376C11.6704 22.7654 12.2327 24.4887 12.9702 25.1667C13.2987 25.4634 13.6857 25.4704 13.934 25.4704C14.7956 25.4704 15.1826 24.7783 15.6135 23.959C16.1392 22.9561 16.6138 21.7907 16.6138 21.7907C16.6138 21.7907 16.0224 24.9407 17.6288 24.9407C18.2129 24.9407 18.8044 24.2062 19.0673 23.8319C19.0673 23.8389 19.0673 23.8389 19.0673 23.8389C19.0673 23.8389 19.0819 23.8177 19.1111 23.7683C19.1695 23.6765 19.206 23.62 19.206 23.62C19.206 23.62 19.206 23.6129 19.206 23.6059C19.4397 23.2103 19.9654 22.3134 20.7467 20.8231C21.7544 18.902 22.7255 16.5006 22.7255 16.5006C22.7255 16.5006 22.8132 17.0869 23.1125 18.0615C23.2878 18.6336 23.6529 19.2622 23.945 19.8696C23.7113 20.1874 23.5653 20.364 23.5653 20.364C23.5653 20.364 23.5653 20.364 23.5726 20.3711C23.3827 20.6112 23.1783 20.8725 22.9519 21.1268C22.156 22.045 21.2067 23.0973 21.0753 23.401C20.922 23.7612 20.9585 24.0226 21.2505 24.2345C21.4623 24.3898 21.842 24.411 22.229 24.3898C22.9446 24.3404 23.4484 24.1709 23.6967 24.0649C24.0837 23.9307 24.5364 23.7259 24.9599 23.4222C25.7412 22.8643 26.2159 22.0662 26.1721 21.0138C26.1501 20.4346 25.953 19.8555 25.712 19.3117C25.785 19.2128 25.8508 19.1139 25.9238 19.015C27.1578 17.2705 28.1144 15.3565 28.1144 15.3565C28.1144 15.3565 28.202 15.9427 28.5014 16.9174C28.6474 17.4118 28.9468 17.9485 29.2097 18.4712C28.0486 19.3823 27.3331 20.4417 27.0775 21.1339C26.6175 22.4193 26.9753 22.9985 27.6543 23.1326C27.961 23.1962 28.3991 23.055 28.7204 22.9208C29.1293 22.7936 29.6113 22.5747 30.0713 22.2498C30.8526 21.6918 31.6047 20.9149 31.5609 19.8626C31.539 19.3823 31.4075 18.9091 31.225 18.45C32.2108 18.0545 33.4813 17.8355 35.1023 18.0192C38.578 18.4147 39.2644 20.5123 39.133 21.3952C39.0016 22.278 38.2714 22.7583 38.0304 22.9066C37.7894 23.055 37.7091 23.1044 37.731 23.2103C37.7602 23.3657 37.8771 23.3587 38.0815 23.3304C38.3663 23.281 39.907 22.6171 39.9727 20.9926C40.0822 18.9161 38.0377 16.649 34.4232 16.6702ZM7.61053 25.4139C6.45683 26.6287 4.8504 27.0878 4.15672 26.6994C3.41192 26.2827 3.704 24.4887 5.12057 23.2033C5.9822 22.4193 7.09209 21.6918 7.82959 21.2469C7.99753 21.148 8.2458 21.0067 8.54518 20.8302C8.59629 20.8019 8.6255 20.7878 8.6255 20.7878C8.68392 20.7525 8.74233 20.7172 8.80075 20.6818C9.31918 22.5182 8.82265 24.1356 7.61053 25.4139ZM16.0078 19.8908C15.6062 20.8372 14.7664 23.2598 14.2553 23.1256C13.8172 23.0126 13.547 21.1762 14.1677 19.3611C14.4817 18.45 15.1461 17.3623 15.5331 16.9385C16.1611 16.2605 16.8548 16.0345 17.0227 16.3099C17.2345 16.6702 16.256 19.2975 16.0078 19.8908ZM22.9373 23.0973C22.7694 23.1821 22.6087 23.2386 22.5357 23.1962C22.4846 23.168 22.6087 23.055 22.6087 23.055C22.6087 23.055 23.4776 22.1509 23.8208 21.7413C24.018 21.5011 24.2516 21.2186 24.4999 20.9008C24.4999 20.929 24.4999 20.9644 24.4999 20.9926C24.4999 22.0732 23.4192 22.8007 22.9373 23.0973ZM28.2823 21.9178C28.1582 21.8331 28.1801 21.5506 28.5963 20.6677C28.7569 20.3216 29.1366 19.7425 29.7865 19.1845C29.8595 19.4105 29.9106 19.6295 29.9033 19.8343C29.896 21.1974 28.8884 21.706 28.2823 21.9178Z" fill="#CD6799"/>
</svg>
