<svg width="40" height="40" viewBox="0 0 40 40" fill="none" xmlns="http://www.w3.org/2000/svg">
<mask id="mask0_692_870" style="mask-type:luminance" maskUnits="userSpaceOnUse" x="0" y="0" width="40" height="40">
<path d="M0 0H40V40H0V0Z" fill="white"/>
</mask>
<g mask="url(#mask0_692_870)">
<path fill-rule="evenodd" clip-rule="evenodd" d="M-0.503906 -0.50293H40.5024V40.5034H-0.503906V-0.50293ZM0.502383 0.50336V39.4971H39.4961V0.50336H0.502383Z" fill="#4A4A4A"/>
</g>
<path fill-rule="evenodd" clip-rule="evenodd" d="M5.56957 28.8573C5.01259 28.8573 4.6458 29.1561 4.6458 29.5546C4.6458 29.9078 4.86316 30.1433 5.35674 30.2792C5.80504 30.4059 5.90014 30.4693 5.90014 30.6686C5.90014 30.8497 5.73259 30.9584 5.47448 30.9584C5.22995 30.9584 5.00806 30.8633 4.8224 30.7229L4.53259 31.049C4.75448 31.2482 5.07599 31.3886 5.48806 31.3886C6.03599 31.3886 6.49787 31.1259 6.49787 30.6278C6.49787 30.2022 6.22165 30.0029 5.73259 29.8716C5.32504 29.7584 5.22995 29.686 5.22995 29.5275C5.22995 29.3826 5.36127 29.2875 5.59221 29.2875C5.80504 29.2875 5.99523 29.3554 6.19448 29.4822L6.42089 29.1426C6.19448 28.966 5.91372 28.8573 5.56957 28.8573ZM8.13712 30.8361L8.34089 31.2075C8.16882 31.3297 7.95146 31.3886 7.73863 31.3886C7.26768 31.3841 7.01863 31.1169 7.01863 30.6052V29.3418H6.64278V28.9252H7.01863V28.3954L7.59825 28.3275V28.9252H8.15523L8.09636 29.3418H7.59825V30.5916C7.59825 30.8271 7.67523 30.9222 7.85184 30.9222C7.9424 30.9222 8.03297 30.895 8.13712 30.8361ZM10.605 28.9252L9.82618 31.3297C9.64504 31.8912 9.29184 32.2535 8.58089 32.3078L8.52202 31.8867C8.9975 31.8143 9.15146 31.6603 9.28731 31.3207H9.08806L8.32731 28.9252H8.94316L9.46391 30.9358L10.0073 28.9252H10.605ZM11.5243 31.3886C11.6569 31.3886 11.788 31.3608 11.9092 31.3071L11.7869 30.8995C11.7462 30.9131 11.7054 30.9222 11.6511 30.9222C11.556 30.9222 11.5152 30.8678 11.5152 30.7546V27.9018L10.9356 27.9652V30.7727C10.9356 31.1667 11.1575 31.3886 11.5243 31.3886ZM14.2594 30.0663C14.2594 30.1433 14.2503 30.2384 14.2458 30.3018H12.7424C12.7832 30.7909 13.0141 30.9493 13.3311 30.9493C13.5439 30.9493 13.7205 30.8814 13.9288 30.7365L14.1688 31.0671C13.9333 31.2573 13.6435 31.3886 13.2813 31.3886C12.5386 31.3886 12.1401 30.895 12.1401 30.1388C12.1401 29.4097 12.525 28.8573 13.2043 28.8573C13.8745 28.8573 14.2594 29.3101 14.2594 30.0663ZM13.6843 29.926V29.8988C13.6843 29.5048 13.5439 29.2693 13.2179 29.2693C12.9462 29.2693 12.7741 29.4505 12.7424 29.926H13.6843ZM16.2156 27.9018L16.7952 27.9652V31.3207H16.2835L16.2428 31.0173C16.0979 31.2346 15.8669 31.3886 15.559 31.3886C14.9613 31.3886 14.6488 30.886 14.6488 30.1252C14.6488 29.3871 15.0201 28.8573 15.6133 28.8573C15.8669 28.8573 16.0662 28.966 16.2156 29.1154V27.9018ZM15.722 30.9493C15.9349 30.9493 16.0798 30.8452 16.2156 30.6414V29.5456C16.0888 29.3916 15.953 29.292 15.7582 29.292C15.4594 29.292 15.2601 29.5456 15.2601 30.1207C15.2601 30.7365 15.4367 30.9493 15.722 30.9493ZM5.58919 33.3856C4.90089 33.3856 4.4707 33.9063 4.4707 34.6716C4.4707 35.4369 4.90089 35.9169 5.59372 35.9169C5.90165 35.9169 6.1507 35.8173 6.36806 35.6407L6.10995 35.2739C5.93334 35.3871 5.80655 35.4459 5.62542 35.4459C5.29938 35.4459 5.08655 35.2422 5.08655 34.6626C5.08655 34.0875 5.29033 33.8429 5.62542 33.8429C5.80655 33.8429 5.95146 33.8973 6.10995 34.015L6.36806 33.6663C6.14165 33.4716 5.90165 33.3856 5.58919 33.3856ZM7.76731 33.3856C8.47372 33.3856 8.89033 33.8656 8.89033 34.649C8.89033 35.4052 8.46919 35.9169 7.76278 35.9169C7.05636 35.9169 6.63523 35.4369 6.63523 34.649C6.63523 33.8973 7.05636 33.3856 7.76731 33.3856ZM7.76731 33.8248C7.42768 33.8248 7.24655 34.0829 7.24655 34.649C7.24655 35.2241 7.42316 35.4776 7.76278 35.4776C8.1024 35.4776 8.279 35.2195 8.279 34.649C8.279 34.0784 8.1024 33.8248 7.76731 33.8248ZM11.9741 33.3856C11.6571 33.3856 11.4352 33.5395 11.2541 33.7886C11.1635 33.535 10.9552 33.3856 10.6745 33.3856C10.3711 33.3856 10.1537 33.5259 9.98165 33.7659L9.93636 33.4535H9.43372V35.849H10.0133V34.1826C10.1447 33.9607 10.2669 33.8203 10.4707 33.8203C10.6111 33.8203 10.7333 33.9063 10.7333 34.2052V35.849H11.313V34.1826C11.4443 33.9607 11.5666 33.8203 11.7658 33.8203C11.9107 33.8203 12.0284 33.9063 12.0284 34.2052V35.849H12.6081V34.1146C12.6081 33.6618 12.3545 33.3856 11.9741 33.3856ZM14.5235 33.3856C15.1484 33.3856 15.4111 33.8792 15.4111 34.6444C15.4111 35.378 15.0715 35.9169 14.4647 35.9169C14.2201 35.9169 14.0118 35.8309 13.8624 35.6543V36.7727L13.2828 36.8361V33.4535H13.7899L13.8216 33.7478C14.0118 33.4988 14.2654 33.3856 14.5235 33.3856ZM14.3016 35.4731C14.6186 35.4731 14.8043 35.2286 14.8043 34.649C14.8043 34.0422 14.6413 33.8203 14.3515 33.8203C14.1477 33.8203 13.9756 33.9607 13.8624 34.1463V35.2241C13.9756 35.3916 14.1205 35.4731 14.3016 35.4731ZM16.9598 33.3856C17.6662 33.3856 18.0828 33.8656 18.0828 34.649C18.0828 35.4052 17.6616 35.9169 16.9552 35.9169C16.2488 35.9169 15.8277 35.4369 15.8277 34.649C15.8277 33.8973 16.2488 33.3856 16.9598 33.3856ZM16.9598 33.8248C16.6201 33.8248 16.439 34.0829 16.439 34.649C16.439 35.2241 16.6156 35.4776 16.9552 35.4776C17.2949 35.4776 17.4715 35.2195 17.4715 34.649C17.4715 34.0784 17.2949 33.8248 16.9598 33.8248ZM19.9032 33.3856C19.5998 33.3856 19.3598 33.5259 19.1741 33.7659L19.1288 33.4535H18.6262V35.849H19.2058V34.1826C19.3462 33.9607 19.5001 33.8203 19.7084 33.8203C19.8896 33.8203 20.0028 33.9063 20.0028 34.2052V35.849H20.5824V34.1146C20.5824 33.6573 20.3333 33.3856 19.9032 33.3856ZM23.2224 34.5946C23.2224 34.6716 23.2133 34.7667 23.2088 34.8301H21.7054C21.7462 35.3192 21.9771 35.4776 22.2941 35.4776C22.5069 35.4776 22.6835 35.4097 22.8918 35.2648L23.1318 35.5954C22.8964 35.7856 22.6066 35.9169 22.2443 35.9169C21.5016 35.9169 21.1032 35.4233 21.1032 34.6671C21.1032 33.938 21.4881 33.3856 22.1673 33.3856C22.8375 33.3856 23.2224 33.8384 23.2224 34.5946ZM22.6473 34.4543V34.4271C22.6473 34.0331 22.5069 33.7976 22.1809 33.7976C21.9092 33.7976 21.7371 33.9788 21.7054 34.4543H22.6473ZM25.0201 33.3856C24.7167 33.3856 24.4767 33.5259 24.2911 33.7659L24.2458 33.4535H23.7432V35.849H24.3228V34.1826C24.4632 33.9607 24.6171 33.8203 24.8254 33.8203C25.0066 33.8203 25.1198 33.9063 25.1198 34.2052V35.849H25.6994V34.1146C25.6994 33.6573 25.4503 33.3856 25.0201 33.3856ZM27.5424 35.3644C27.4382 35.4233 27.3477 35.4505 27.2571 35.4505C27.0805 35.4505 27.0035 35.3554 27.0035 35.1199V33.8701H27.5016L27.5605 33.4535H27.0035V32.8558L26.4239 32.9237V33.4535H26.0481V33.8701H26.4239V35.1335C26.4239 35.6452 26.673 35.9124 27.1439 35.9169C27.3567 35.9169 27.5741 35.858 27.7462 35.7358L27.5424 35.3644ZM28.8284 33.3856C28.2715 33.3856 27.9047 33.6844 27.9047 34.0829C27.9047 34.4361 28.122 34.6716 28.6156 34.8075C29.0639 34.9343 29.159 34.9977 29.159 35.1969C29.159 35.378 28.9915 35.4867 28.7333 35.4867C28.4888 35.4867 28.2669 35.3916 28.0813 35.2512L27.7915 35.5773C28.0133 35.7765 28.3349 35.9169 28.7469 35.9169C29.2949 35.9169 29.7567 35.6543 29.7567 35.1561C29.7567 34.7305 29.4805 34.5312 28.9915 34.3999C28.5839 34.2867 28.4888 34.2143 28.4888 34.0558C28.4888 33.9109 28.6201 33.8158 28.8511 33.8158C29.0639 33.8158 29.2541 33.8837 29.4533 34.0105L29.6798 33.6709C29.4533 33.4942 29.1726 33.3856 28.8284 33.3856ZM10.037 10.9685L5.48353 13.7987L10.037 16.6792L9.57158 17.2578L4.82945 14.2892V13.2955L9.6219 10.327M33.4332 13.1823V14.1634L28.6911 17.132L28.2257 16.5156L32.7666 13.6729L28.2257 10.8175L28.6282 10.2012" fill="#4A4A4A"/>
<path d="M16.7061 13.3047L13.043 16.2942V19.9573H20.1588C20.2149 19.9433 20.5293 19.6878 21.3377 18.7784C22.1798 17.8352 22.0535 16.9819 21.8851 16.6731C21.6886 16.9257 21.144 17.4815 20.5377 17.6836C19.7798 17.9363 19.3588 17.5994 19.4851 17.0521C19.6114 16.5047 20.2009 15.9994 20.8324 15.5363C21.203 15.1657 21.0991 14.5678 21.0009 14.3152C20.9728 14.3573 20.8409 14.5257 20.5377 14.8626C20.0745 15.41 19.3167 15.7889 18.7272 15.4942C18.2556 15.2584 18.5307 14.61 18.7272 14.3152C18.6149 14.3994 18.4324 14.5173 18.6009 14.3152C18.7693 14.1131 18.671 13.7819 18.6009 13.6415C18.5588 13.6977 18.4072 13.8689 18.1377 14.1047C17.5482 14.6942 16.5798 15.0731 16.2009 14.5678C15.8977 14.1636 16.4254 13.5714 16.7061 13.3047Z" fill="url(#paint0_linear_692_870)"/>
<path fill-rule="evenodd" clip-rule="evenodd" d="M13.0842 16.3145V19.9156H20.1505C20.1536 19.9141 20.1594 19.911 20.1686 19.905C20.1825 19.896 20.2014 19.8822 20.2258 19.8626C20.2744 19.8236 20.3433 19.7628 20.4361 19.6737C20.6217 19.4954 20.9016 19.2051 21.3054 18.7508L21.3054 18.7507C22.0872 17.8752 22.0185 17.0854 21.8753 16.7517C21.769 16.8797 21.5997 17.0575 21.3911 17.2301C21.1524 17.4277 20.8601 17.6207 20.5502 17.724C20.1653 17.8522 19.8554 17.8346 19.6558 17.7034C19.453 17.5702 19.3772 17.3289 19.4432 17.043C19.5088 16.7586 19.6937 16.4888 19.938 16.2338C20.182 15.9792 20.4887 15.736 20.804 15.5046C20.9777 15.3296 21.0417 15.1002 21.0495 14.8804C21.0559 14.6992 21.024 14.5275 20.9861 14.4044C20.9197 14.489 20.7888 14.6459 20.5686 14.8907C20.3332 15.1687 20.0226 15.4046 19.6944 15.5337C19.3659 15.663 19.016 15.6865 18.7075 15.5322C18.5803 15.4686 18.5017 15.3759 18.4604 15.2673C18.4195 15.1598 18.4163 15.0396 18.4342 14.9209C18.459 14.7559 18.5255 14.5884 18.5975 14.4511C18.5887 14.4556 18.5805 14.4594 18.5729 14.4623C18.5667 14.4647 18.5597 14.4669 18.5525 14.4682C18.546 14.4693 18.5349 14.4705 18.523 14.4666C18.5082 14.4616 18.4958 14.4497 18.4914 14.433C18.4878 14.4196 18.4905 14.4076 18.4926 14.4006C18.497 14.386 18.5064 14.3699 18.5177 14.3533C18.5297 14.3358 18.5462 14.3145 18.5677 14.2887C18.6417 14.1998 18.6593 14.0798 18.6476 13.9597C18.6389 13.8713 18.6146 13.7865 18.5891 13.7215C18.5169 13.8047 18.3769 13.9509 18.1656 14.1358C17.8667 14.4344 17.4717 14.6802 17.1012 14.7876C16.7323 14.8946 16.3718 14.8675 16.1663 14.5935C15.999 14.3705 16.0657 14.1003 16.1969 13.8646C16.2334 13.799 16.2756 13.7348 16.3205 13.6735L13.0842 16.3145ZM16.6786 13.2725L16.7343 13.3356C16.5949 13.468 16.3965 13.6792 16.2705 13.9056C16.1435 14.1337 16.0978 14.3618 16.2337 14.543C16.4071 14.7742 16.7203 14.8103 17.0778 14.7067C17.4331 14.6037 17.8166 14.3658 18.1071 14.0753L18.1081 14.0743L18.1091 14.0734C18.3774 13.8386 18.5266 13.6696 18.5663 13.6167L18.6072 13.5622L18.6377 13.6231C18.6746 13.6971 18.7185 13.8199 18.7314 13.9515C18.7433 14.0734 18.7291 14.2086 18.6512 14.3181C18.6684 14.3061 18.6854 14.2937 18.7011 14.2819L18.7613 14.339C18.6651 14.4834 18.5506 14.7133 18.5174 14.9335C18.5009 15.0432 18.505 15.1477 18.5391 15.2374C18.5727 15.3258 18.6365 15.4026 18.7451 15.4569C19.0261 15.5974 19.3499 15.5788 19.6635 15.4554C19.9772 15.332 20.277 15.1049 20.5047 14.8358L20.5051 14.8353L20.5055 14.8348C20.8089 14.4978 20.9388 14.3315 20.965 14.2923L21.0099 14.2249L21.0392 14.3003C21.0902 14.4313 21.142 14.6496 21.1337 14.8834C21.1254 15.1175 21.0566 15.3712 20.8614 15.5664L20.8591 15.5687L20.8565 15.5706C20.5412 15.8018 20.2383 16.0422 19.9988 16.2921C19.759 16.5424 19.5859 16.799 19.5252 17.0619C19.4649 17.3234 19.5364 17.5242 19.7021 17.6331C19.8709 17.744 20.1504 17.7684 20.5235 17.6441C20.8199 17.5453 21.103 17.3593 21.3374 17.1653C21.5715 16.9714 21.7546 16.7715 21.851 16.6477L21.8904 16.5969L21.9212 16.6533C22.099 16.9793 22.221 17.8518 21.3683 18.8068C20.9637 19.262 20.6822 19.5541 20.4944 19.7344C20.4006 19.8245 20.3298 19.8871 20.2785 19.9283C20.2528 19.9489 20.2316 19.9645 20.2145 19.9756C20.1986 19.9859 20.1825 19.995 20.1681 19.9986L20.1631 19.9998H13V16.2746L16.6786 13.2725Z" fill="#C6710F"/>
<path d="M20.4938 14.8624C19.8622 15.6624 18.5991 15.9571 18.4728 15.0729C18.4409 14.85 18.5012 14.5505 18.7254 14.2729C19.2128 13.6695 20.1985 13.0515 20.7464 12.715C20.9289 12.5887 21.3443 12.4371 21.5464 12.8413C21.799 13.3466 21.1254 14.0623 20.4938 14.8624Z" fill="url(#paint1_linear_692_870)"/>
<path d="M16.1197 14.2956C16.0219 13.6084 17.5458 12.4823 18.32 12.0051C18.4966 11.8824 18.8986 11.7351 19.0941 12.1278C19.3386 12.6186 18.8287 13.4445 18.0942 14.1046C17.3597 14.7648 16.242 15.1545 16.1197 14.2956Z" fill="url(#paint2_linear_692_870)"/>
<path d="M19.4889 17.2429C19.3911 16.5557 20.915 15.4295 21.6891 14.9523C21.8657 14.8296 22.2677 14.6824 22.4633 15.075C22.7077 15.5659 22.3896 16.2519 21.6317 16.9256C20.916 17.7256 19.6111 18.1018 19.4889 17.2429Z" fill="url(#paint3_linear_692_870)"/>
<path fill-rule="evenodd" clip-rule="evenodd" d="M18.544 14.4313L13.1124 19.2313L13.0566 19.1682L18.4882 14.3682L18.544 14.4313ZM20.1448 16.1148L16.0184 19.9464L15.9611 19.8847L20.0875 16.0531L20.1448 16.1148Z" fill="#C6710F"/>
<path d="M23.6095 10.0215L22.8516 13.1794L23.441 13.3478C23.6796 12.5618 24.1905 10.8215 24.3252 10.1478C24.0221 10.1815 23.7217 10.0776 23.6095 10.0215Z" fill="url(#paint4_linear_692_870)"/>
<path d="M22.8525 9.26316L23.063 8H25.1261V10.1474C25.0419 10.1895 24.7471 10.2653 24.2419 10.2316C23.6103 10.1895 23.3998 9.97895 23.1051 9.81053C22.8693 9.67579 22.8384 9.38947 22.8525 9.26316Z" fill="url(#paint5_linear_692_870)"/>
<path d="M22.305 14.0628C22.3724 14.7028 21.7717 15.34 21.4629 15.5786C22.0945 15.5786 22.2208 15.4944 22.4734 15.2839C22.726 15.0733 23.1892 14.5681 23.3576 14.3575C23.4924 14.1891 23.4418 13.6137 23.3997 13.347L22.8524 13.2207C22.712 13.333 22.406 13.6586 22.305 14.0628Z" fill="url(#paint6_linear_692_870)"/>
<path fill-rule="evenodd" clip-rule="evenodd" d="M22.8252 13.1879C22.8353 13.1799 22.8484 13.1769 22.861 13.1798L23.4083 13.3061C23.4251 13.31 23.4378 13.3236 23.4405 13.3406C23.4618 13.4754 23.4852 13.6881 23.4862 13.889C23.4868 13.9894 23.4817 14.0881 23.4676 14.1731C23.4538 14.2567 23.4303 14.3332 23.3896 14.384C23.2202 14.5957 22.7551 15.1033 22.4995 15.3163C22.3729 15.4218 22.2729 15.5002 22.1227 15.5502C21.9739 15.5998 21.7787 15.6208 21.462 15.6208C21.444 15.6208 21.428 15.6094 21.4222 15.5923C21.4164 15.5753 21.422 15.5564 21.4363 15.5454C21.5876 15.4285 21.8117 15.2128 21.9892 14.9479C22.1671 14.6824 22.2945 14.3732 22.2623 14.0673C22.2617 14.0624 22.2621 14.0575 22.2633 14.0527C22.3674 13.6364 22.6807 13.3035 22.8252 13.1879ZM22.8622 13.2665C22.7209 13.3853 22.4429 13.6915 22.3468 14.0661C22.3791 14.3976 22.2405 14.724 22.0591 14.9948C21.9094 15.2182 21.728 15.4074 21.5808 15.5355C21.8249 15.5306 21.9787 15.5095 22.0961 15.4703C22.2301 15.4257 22.3196 15.3567 22.4456 15.2516C22.6953 15.0436 23.1564 14.5407 23.3239 14.3314C23.3506 14.2979 23.3713 14.2393 23.3846 14.1593C23.3976 14.0808 23.4025 13.9873 23.402 13.8895C23.4011 13.7072 23.3811 13.5139 23.3616 13.3817L22.8622 13.2665Z" fill="url(#paint7_linear_692_870)"/>
<defs>
<linearGradient id="paint0_linear_692_870" x1="15.2324" y1="14.3994" x2="20.243" y2="19.9573" gradientUnits="userSpaceOnUse">
<stop stop-color="#FFCC41"/>
<stop offset="0.11719" stop-color="#FFD352"/>
<stop offset="0.241366" stop-color="#ECAB1C"/>
<stop offset="0.321697" stop-color="#FFD353"/>
<stop offset="0.428396" stop-color="#FFCF48"/>
<stop offset="0.555025" stop-color="#E8A415"/>
<stop offset="0.675521" stop-color="#FFD661"/>
<stop offset="0.884934" stop-color="#FFD456"/>
<stop offset="1" stop-color="#E19A0B"/>
</linearGradient>
<linearGradient id="paint1_linear_692_870" x1="19.5254" y1="13.6414" x2="20.578" y2="14.6098" gradientUnits="userSpaceOnUse">
<stop offset="0.01" stop-color="#AC3B89"/>
<stop offset="0.235" stop-color="#E89EE4"/>
<stop offset="0.460269" stop-color="#E8B0E4"/>
<stop offset="0.715" stop-color="#BF69AE"/>
<stop offset="1" stop-color="#68374B"/>
</linearGradient>
<linearGradient id="paint2_linear_692_870" x1="17.1383" y1="12.9049" x2="18.1606" y2="13.8418" gradientUnits="userSpaceOnUse">
<stop offset="0.01" stop-color="#AC3B89"/>
<stop offset="0.235" stop-color="#E89EE4"/>
<stop offset="0.460269" stop-color="#E8B0E4"/>
<stop offset="0.715" stop-color="#BF69AE"/>
<stop offset="1" stop-color="#68374B"/>
</linearGradient>
<linearGradient id="paint3_linear_692_870" x1="20.5075" y1="15.8522" x2="21.5297" y2="16.7891" gradientUnits="userSpaceOnUse">
<stop offset="0.01" stop-color="#AC3B89"/>
<stop offset="0.235" stop-color="#E89EE4"/>
<stop offset="0.460269" stop-color="#E8B0E4"/>
<stop offset="0.715" stop-color="#BF69AE"/>
<stop offset="1" stop-color="#68374B"/>
</linearGradient>
<linearGradient id="paint4_linear_692_870" x1="23.2305" y1="11.2846" x2="24.0305" y2="11.4952" gradientUnits="userSpaceOnUse">
<stop stop-color="#F084D1"/>
<stop offset="0.345" stop-color="#F49CDE"/>
<stop offset="0.66" stop-color="#8E5276"/>
<stop offset="1" stop-color="#8A5073"/>
</linearGradient>
<linearGradient id="paint5_linear_692_870" x1="22.8524" y1="8.8" x2="25.9846" y2="9.68492" gradientUnits="userSpaceOnUse">
<stop stop-color="#F084D1"/>
<stop offset="0.345" stop-color="#F49CDE"/>
<stop offset="0.66" stop-color="#8E5276"/>
<stop offset="1" stop-color="#8A5073"/>
</linearGradient>
<linearGradient id="paint6_linear_692_870" x1="22.3892" y1="13.8944" x2="23.1471" y2="14.5681" gradientUnits="userSpaceOnUse">
<stop stop-color="#D14DA9"/>
<stop offset="0.265" stop-color="#F495E8"/>
<stop offset="0.55" stop-color="#DC48BB"/>
<stop offset="0.795" stop-color="#A33589"/>
<stop offset="1" stop-color="#71285C"/>
</linearGradient>
<linearGradient id="paint7_linear_692_870" x1="22.2199" y1="14.0629" x2="23.441" y2="14.4419" gradientUnits="userSpaceOnUse">
<stop stop-color="#B72B80"/>
<stop offset="1" stop-color="#351E2C"/>
</linearGradient>
</defs>
</svg>
